<svg xmlns="http://www.w3.org/2000/svg" width="420" height="420">
<rect width="420" height="420" fill="white"/>
<line x1="130.00" y1="223.46" x2="123.70" y2="220.00" stroke="black" stroke-width="1"/>
<line x1="130.00" y1="223.46" x2="140.00" y2="226.74" stroke="black" stroke-width="1"/>
<line x1="140.00" y1="226.74" x2="150.00" y2="228.13" stroke="black" stroke-width="1"/>
<line x1="150.00" y1="228.13" x2="160.00" y2="227.88" stroke="black" stroke-width="1"/>
<line x1="160.00" y1="227.88" x2="170.00" y2="225.96" stroke="black" stroke-width="1"/>
<line x1="170.00" y1="225.96" x2="180.00" y2="222.00" stroke="black" stroke-width="1"/>
<line x1="180.00" y1="222.00" x2="183.41" y2="220.00" stroke="black" stroke-width="1"/>
<line x1="120.00" y1="217.87" x2="110.73" y2="210.00" stroke="black" stroke-width="1"/>
<line x1="120.00" y1="217.87" x2="123.70" y2="220.00" stroke="black" stroke-width="1"/>
<line x1="183.41" y1="220.00" x2="190.00" y2="215.71" stroke="black" stroke-width="1"/>
<line x1="190.00" y1="215.71" x2="196.39" y2="210.00" stroke="black" stroke-width="1"/>
<line x1="110.00" y1="209.23" x2="102.87" y2="200.00" stroke="black" stroke-width="1"/>
<line x1="110.00" y1="209.23" x2="110.73" y2="210.00" stroke="black" stroke-width="1"/>
<line x1="196.39" y1="210.00" x2="200.00" y2="205.77" stroke="black" stroke-width="1"/>
<line x1="200.00" y1="205.77" x2="204.36" y2="200.00" stroke="black" stroke-width="1"/>
<line x1="100.00" y1="194.35" x2="97.88" y2="190.00" stroke="black" stroke-width="1"/>
<line x1="100.00" y1="194.35" x2="102.87" y2="200.00" stroke="black" stroke-width="1"/>
<line x1="204.36" y1="200.00" x2="209.23" y2="190.00" stroke="black" stroke-width="1"/>
<line x1="97.88" y1="190.00" x2="94.97" y2="180.00" stroke="black" stroke-width="1"/>
<line x1="209.23" y1="190.00" x2="210.00" y2="187.23" stroke="black" stroke-width="1"/>
<line x1="210.00" y1="187.23" x2="212.27" y2="180.00" stroke="black" stroke-width="1"/>
<line x1="94.97" y1="180.00" x2="93.93" y2="170.00" stroke="black" stroke-width="1"/>
<line x1="212.27" y1="180.00" x2="213.43" y2="170.00" stroke="black" stroke-width="1"/>
<line x1="93.93" y1="170.00" x2="94.60" y2="160.00" stroke="black" stroke-width="1"/>
<line x1="213.43" y1="170.00" x2="212.78" y2="160.00" stroke="black" stroke-width="1"/>
<line x1="94.60" y1="160.00" x2="97.08" y2="150.00" stroke="black" stroke-width="1"/>
<line x1="212.78" y1="160.00" x2="210.17" y2="150.00" stroke="black" stroke-width="1"/>
<line x1="97.08" y1="150.00" x2="100.00" y2="143.47" stroke="black" stroke-width="1"/>
<line x1="100.00" y1="143.47" x2="101.62" y2="140.00" stroke="black" stroke-width="1"/>
<line x1="210.00" y1="149.61" x2="205.98" y2="140.00" stroke="black" stroke-width="1"/>
<line x1="210.00" y1="149.61" x2="210.17" y2="150.00" stroke="black" stroke-width="1"/>
<line x1="101.62" y1="140.00" x2="108.68" y2="130.00" stroke="black" stroke-width="1"/>
<line x1="200.00" y1="131.50" x2="198.81" y2="130.00" stroke="black" stroke-width="1"/>
<line x1="200.00" y1="131.50" x2="205.98" y2="140.00" stroke="black" stroke-width="1"/>
<line x1="108.68" y1="130.00" x2="110.00" y2="128.53" stroke="black" stroke-width="1"/>
<line x1="110.00" y1="128.53" x2="119.92" y2="120.00" stroke="black" stroke-width="1"/>
<line x1="190.00" y1="121.69" x2="187.55" y2="120.00" stroke="black" stroke-width="1"/>
<line x1="190.00" y1="121.69" x2="198.81" y2="130.00" stroke="black" stroke-width="1"/>
<line x1="119.92" y1="120.00" x2="120.00" y2="119.94" stroke="black" stroke-width="1"/>
<line x1="120.00" y1="119.94" x2="130.00" y2="114.22" stroke="black" stroke-width="1"/>
<line x1="130.00" y1="114.22" x2="140.00" y2="111.01" stroke="black" stroke-width="1"/>
<line x1="140.00" y1="111.01" x2="147.34" y2="110.00" stroke="black" stroke-width="1"/>
<line x1="170.00" y1="111.61" x2="161.05" y2="110.00" stroke="black" stroke-width="1"/>
<line x1="170.00" y1="111.61" x2="180.00" y2="115.35" stroke="black" stroke-width="1"/>
<line x1="180.00" y1="115.35" x2="187.55" y2="120.00" stroke="black" stroke-width="1"/>
<line x1="147.34" y1="110.00" x2="150.00" y2="109.56" stroke="black" stroke-width="1"/>
<line x1="150.00" y1="109.56" x2="160.00" y2="109.79" stroke="black" stroke-width="1"/>
<line x1="160.00" y1="109.79" x2="161.05" y2="110.00" stroke="black" stroke-width="1"/>
</svg>